<?xml version="1.0" encoding="UTF-8" standalone="no" ?>
<!DOCTYPE svg PUBLIC "-//W3C//DTD SVG 1.1//EN" "http://www.w3.org/Graphics/SVG/1.1/DTD/svg11.dtd">
<svg xmlns="http://www.w3.org/2000/svg" xmlns:xlink="http://www.w3.org/1999/xlink" version="1.1" width="727" height="112" viewBox="0 0 727 112" xml:space="preserve">
<desc>Created with Fabric.js 3.6.3</desc>
<defs>
</defs>
<g transform="matrix(1 0 0 1 363.74 56.55)"  >
<g style=""   >
		<g transform="matrix(0.59 0 0 0.59 7 -9.76)"  >
<linearGradient id="SVGID_311" gradientUnits="userSpaceOnUse" gradientTransform="matrix(1 0 0 1 0 0)"  x1="0" y1="50.000500302128835" x2="72.223" y2="50.000500302128835">
<stop offset="0%" style="stop-color:rgb(90,90,45);stop-opacity: 1"/>
<stop offset="100%" style="stop-color:rgb(13,227,13);stop-opacity: 1"/>
</linearGradient>
<path style="stroke: none; stroke-width: 1; stroke-dasharray: none; stroke-linecap: butt; stroke-dashoffset: 0; stroke-linejoin: miter; stroke-miterlimit: 4; fill: url(#SVGID_311); fill-rule: nonzero; opacity: 1;"  transform=" translate(-36.11, -50)" d="M 72.223 47.223 c 0 -5.945 -3.777 -11.039 -9.028 -13.021 c 2.192 -2.455 3.472 -5.651 3.472 -9.201 c 0 -7.67 -6.218 -13.889 -13.889 -13.889 c -1.094 0 -2.104 0.106 -3.125 0.344 C 48.49 4.961 42.942 -0.002 36.111 0 c -6.83 0.001 -12.379 4.964 -13.542 11.46 a 13.468 13.468 0 0 0 -3.125 -0.345 c -7.671 0 -13.889 6.218 -13.889 13.889 c 0 3.551 1.28 6.746 3.472 9.202 C 3.777 36.187 0 41.278 0 47.223 c 0 7.671 5.556 13.892 13.889 13.892 h 2.777 l 11.111 19.444 v 13.887 c 0 2.777 2.778 5.555 5.556 5.555 h 5.556 c 2.776 0 5.555 -2.777 5.555 -5.555 v -13.89 l 11.112 -19.441 l 3.992 -0.083 c 7.118 0.081 12.675 -6.558 12.675 -13.809 z m -44.445 13.89 h 16.667 l -5.555 11.11 h -5.556 l -5.556 -11.11 z" stroke-linecap="round" />
</g>
		<g transform="matrix(3 0 0 3 0 18.45)"  >
<path style="stroke: none; stroke-width: 1; stroke-dasharray: none; stroke-linecap: butt; stroke-dashoffset: 0; stroke-linejoin: miter; stroke-miterlimit: 4; fill: rgb(12,53,7); fill-rule: nonzero; opacity: 1;"  transform=" translate(-69.38, -6.53)" d="M 3.11 2.93 L 3.11 5.01 L 4.13 5.01 L 4.13 5.01 Q 4.37 5.01 4.61 4.96 L 4.61 4.96 L 4.61 4.96 Q 4.84 4.9 5.03 4.77 L 5.03 4.77 L 5.03 4.77 Q 5.21 4.63 5.32 4.42 L 5.32 4.42 L 5.32 4.42 Q 5.43 4.21 5.43 3.91 L 5.43 3.91 L 5.43 3.91 Q 5.43 3.6 5.32 3.4 L 5.32 3.4 L 5.32 3.4 Q 5.21 3.21 5.02 3.1 L 5.02 3.1 L 5.02 3.1 Q 4.83 3 4.58 2.96 L 4.58 2.96 L 4.58 2.96 Q 4.34 2.93 4.06 2.93 L 4.06 2.93 L 3.11 2.93 Z M 7.66 7.74 L 7.66 7.76 L 7.66 7.76 Q 7.66 8.51 7.34 9.04 L 7.34 9.04 L 7.34 9.04 Q 7.03 9.56 6.5 9.89 L 6.5 9.89 L 6.5 9.89 Q 5.98 10.22 5.31 10.36 L 5.31 10.36 L 5.31 10.36 Q 4.63 10.5 3.92 10.5 L 3.92 10.5 L 1.13 10.5 L 1.13 1.36 L 4.1 1.36 L 4.1 1.36 Q 4.76 1.36 5.36 1.49 L 5.36 1.49 L 5.36 1.49 Q 5.95 1.62 6.4 1.92 L 6.4 1.92 L 6.4 1.92 Q 6.85 2.23 7.11 2.72 L 7.11 2.72 L 7.11 2.72 Q 7.38 3.21 7.39 3.93 L 7.39 3.93 L 7.39 3.95 L 7.39 3.95 Q 7.39 4.59 7.11 4.96 L 7.11 4.96 L 7.11 4.96 Q 6.82 5.32 6.48 5.52 L 6.48 5.52 L 6.48 5.52 Q 6.09 5.74 5.59 5.8 L 5.59 5.8 L 5.59 5.8 Q 6.16 5.85 6.62 6.09 L 6.62 6.09 L 6.62 6.09 Q 7.01 6.29 7.34 6.68 L 7.34 6.68 L 7.34 6.68 Q 7.66 7.07 7.66 7.74 L 7.66 7.74 Z M 3.11 8.95 L 4.21 8.95 L 4.21 8.95 Q 4.51 8.95 4.77 8.88 L 4.77 8.88 L 4.77 8.88 Q 5.04 8.82 5.24 8.67 L 5.24 8.67 L 5.24 8.67 Q 5.45 8.53 5.57 8.29 L 5.57 8.29 L 5.57 8.29 Q 5.68 8.05 5.68 7.7 L 5.68 7.7 L 5.68 7.7 Q 5.68 7.34 5.56 7.1 L 5.56 7.1 L 5.56 7.1 Q 5.43 6.86 5.22 6.72 L 5.22 6.72 L 5.22 6.72 Q 5.01 6.58 4.73 6.52 L 4.73 6.52 L 4.73 6.52 Q 4.44 6.47 4.12 6.47 L 4.12 6.47 L 3.11 6.47 L 3.11 8.95 Z M 13.62 3.18 L 13.62 5.1 L 13.62 5.1 Q 13.3 5.03 13.04 5.02 L 13.04 5.02 L 13.04 5.02 Q 12.78 5.01 12.56 5.03 L 12.56 5.03 L 12.56 5.03 Q 12.11 5.05 11.82 5.22 L 11.82 5.22 L 11.82 5.22 Q 11.54 5.39 11.38 5.66 L 11.38 5.66 L 11.38 5.66 Q 11.23 5.94 11.17 6.28 L 11.17 6.28 L 11.17 6.28 Q 11.12 6.62 11.12 6.99 L 11.12 6.99 L 11.12 10.5 L 9.23 10.5 L 9.23 3.36 L 10.61 3.36 L 10.91 4.93 L 10.91 4.93 Q 10.91 4.93 10.94 4.77 L 10.94 4.77 L 10.94 4.77 Q 10.98 4.61 11.08 4.38 L 11.08 4.38 L 11.08 4.38 Q 11.19 4.14 11.38 3.88 L 11.38 3.88 L 11.38 3.88 Q 11.58 3.63 11.88 3.43 L 11.88 3.43 L 11.88 3.43 Q 12.18 3.23 12.61 3.15 L 12.61 3.15 L 12.61 3.15 Q 13.03 3.07 13.62 3.18 L 13.62 3.18 Z M 17.54 3.12 L 17.54 3.12 L 17.54 3.12 Q 18 3.12 18.54 3.27 L 18.54 3.27 L 18.54 3.27 Q 19.07 3.42 19.53 3.75 L 19.53 3.75 L 19.53 3.75 Q 19.99 4.07 20.29 4.59 L 20.29 4.59 L 20.29 4.59 Q 20.58 5.11 20.57 5.85 L 20.57 5.85 L 20.57 10.5 L 19.19 10.5 L 19.19 10.5 Q 19.19 10.5 19.15 10.33 L 19.15 10.33 L 19.15 10.33 Q 19.11 10.16 19.06 9.95 L 19.06 9.95 L 19.06 9.95 Q 19.01 9.74 18.97 9.58 L 18.97 9.58 L 18.97 9.58 Q 18.93 9.42 18.93 9.44 L 18.93 9.44 L 18.93 9.44 Q 18.73 9.79 18.41 10.05 L 18.41 10.05 L 18.41 10.05 Q 18.13 10.29 17.69 10.47 L 17.69 10.47 L 17.69 10.47 Q 17.25 10.65 16.6 10.65 L 16.6 10.65 L 16.6 10.65 Q 16.16 10.65 15.72 10.52 L 15.72 10.52 L 15.72 10.52 Q 15.29 10.39 14.95 10.13 L 14.95 10.13 L 14.95 10.13 Q 14.6 9.87 14.39 9.48 L 14.39 9.48 L 14.39 9.48 Q 14.17 9.09 14.15 8.57 L 14.15 8.57 L 14.15 8.57 Q 14.13 8.02 14.3 7.59 L 14.3 7.59 L 14.3 7.59 Q 14.48 7.17 14.81 6.86 L 14.81 6.86 L 14.81 6.86 Q 15.13 6.55 15.6 6.36 L 15.6 6.36 L 15.6 6.36 Q 16.06 6.17 16.6 6.1 L 16.6 6.1 L 16.6 6.1 Q 17.12 6.03 17.74 6.03 L 17.74 6.03 L 17.74 6.03 Q 18.35 6.03 18.84 6.06 L 18.84 6.06 L 18.84 5.84 L 18.84 5.84 Q 18.84 5.24 18.58 4.93 L 18.58 4.93 L 18.58 4.93 Q 18.31 4.63 17.91 4.54 L 17.91 4.54 L 17.91 4.54 Q 17.51 4.45 17.04 4.52 L 17.04 4.52 L 17.04 4.52 Q 16.56 4.59 16.13 4.72 L 16.13 4.72 L 16.13 4.72 Q 15.69 4.86 15.37 5 L 15.37 5 L 15.37 5 Q 15.04 5.15 14.95 5.22 L 14.95 5.22 L 14.95 3.81 L 14.95 3.81 Q 14.97 3.79 15.2 3.69 L 15.2 3.69 L 15.2 3.69 Q 15.44 3.58 15.81 3.46 L 15.81 3.46 L 15.81 3.46 Q 16.17 3.33 16.63 3.23 L 16.63 3.23 L 16.63 3.23 Q 17.08 3.12 17.54 3.12 Z M 18.44 8.68 L 18.44 8.68 L 18.44 8.68 Q 18.68 8.37 18.75 7.99 L 18.75 7.99 L 18.75 7.99 Q 18.83 7.62 18.83 7.2 L 18.83 7.2 L 18.02 7.2 L 18.02 7.2 Q 17.7 7.2 17.33 7.24 L 17.33 7.24 L 17.33 7.24 Q 16.97 7.28 16.66 7.41 L 16.66 7.41 L 16.66 7.41 Q 16.35 7.53 16.14 7.78 L 16.14 7.78 L 16.14 7.78 Q 15.93 8.02 15.93 8.44 L 15.93 8.44 L 15.93 8.44 Q 15.93 8.9 16.28 9.11 L 16.28 9.11 L 16.28 9.11 Q 16.62 9.32 17.12 9.32 L 17.12 9.32 L 17.12 9.32 Q 17.56 9.32 17.89 9.15 L 17.89 9.15 L 17.89 9.15 Q 18.21 8.97 18.44 8.68 Z M 26.59 3.12 L 26.59 3.12 L 26.59 3.12 Q 27.23 3.12 27.69 3.34 L 27.69 3.34 L 27.69 3.34 Q 28.15 3.56 28.46 3.93 L 28.46 3.93 L 28.46 3.93 Q 28.76 4.31 28.9 4.83 L 28.9 4.83 L 28.9 4.83 Q 29.04 5.35 29.04 5.95 L 29.04 5.95 L 29.04 10.5 L 27.16 10.5 L 27.16 6.58 L 27.16 6.58 Q 27.16 5.54 26.88 5.05 L 26.88 5.05 L 26.88 5.05 Q 26.6 4.56 25.91 4.56 L 25.91 4.56 L 25.91 4.56 Q 25.09 4.56 24.69 5.25 L 24.69 5.25 L 24.69 5.25 Q 24.29 5.94 24.29 7.06 L 24.29 7.06 L 24.29 10.5 L 22.41 10.5 L 22.41 3.29 L 23.81 3.29 L 24.19 4.27 L 24.19 4.27 Q 24.33 4.12 24.5 3.91 L 24.5 3.91 L 24.5 3.91 Q 24.67 3.71 24.93 3.54 L 24.93 3.54 L 24.93 3.54 Q 25.19 3.36 25.59 3.24 L 25.59 3.24 L 25.59 3.24 Q 25.98 3.12 26.59 3.12 Z M 34.12 3.12 L 34.12 3.12 L 34.12 3.12 Q 34.55 3.12 34.89 3.18 L 34.89 3.18 L 34.89 3.18 Q 35.22 3.23 35.46 3.3 L 35.46 3.3 L 35.46 3.3 Q 35.73 3.39 35.95 3.49 L 35.95 3.49 L 35.95 4.82 L 35.95 4.82 Q 35.41 4.65 34.77 4.59 L 34.77 4.59 L 34.77 4.59 Q 34.13 4.54 33.59 4.74 L 33.59 4.74 L 33.59 4.74 Q 33.04 4.94 32.68 5.45 L 32.68 5.45 L 32.68 5.45 Q 32.31 5.95 32.31 6.89 L 32.31 6.89 L 32.31 6.89 Q 32.31 7.87 32.68 8.38 L 32.68 8.38 L 32.68 8.38 Q 33.04 8.89 33.59 9.06 L 33.59 9.06 L 33.59 9.06 Q 34.13 9.24 34.77 9.15 L 34.77 9.15 L 34.77 9.15 Q 35.41 9.06 35.95 8.85 L 35.95 8.85 L 35.95 10.23 L 35.95 10.23 Q 35.74 10.36 35.46 10.44 L 35.46 10.44 L 35.46 10.44 Q 35.22 10.53 34.88 10.59 L 34.88 10.59 L 34.88 10.59 Q 34.54 10.65 34.1 10.65 L 34.1 10.65 L 34.1 10.65 Q 33.56 10.65 32.9 10.51 L 32.9 10.51 L 32.9 10.51 Q 32.24 10.37 31.67 9.97 L 31.67 9.97 L 31.67 9.97 Q 31.11 9.56 30.73 8.83 L 30.73 8.83 L 30.73 8.83 Q 30.35 8.09 30.35 6.89 L 30.35 6.89 L 30.35 6.89 Q 30.35 5.7 30.73 4.96 L 30.73 4.96 L 30.73 4.96 Q 31.11 4.21 31.67 3.81 L 31.67 3.81 L 31.67 3.81 Q 32.24 3.4 32.9 3.26 L 32.9 3.26 L 32.9 3.26 Q 33.56 3.12 34.12 3.12 Z M 41.43 3.12 L 41.43 3.12 L 41.43 3.12 Q 42.07 3.12 42.53 3.34 L 42.53 3.34 L 42.53 3.34 Q 42.99 3.56 43.29 3.93 L 43.29 3.93 L 43.29 3.93 Q 43.6 4.31 43.74 4.83 L 43.74 4.83 L 43.74 4.83 Q 43.88 5.35 43.88 5.95 L 43.88 5.95 L 43.88 10.5 L 42 10.5 L 42 6.58 L 42 6.58 Q 42 5.54 41.72 5.05 L 41.72 5.05 L 41.72 5.05 Q 41.44 4.56 40.75 4.56 L 40.75 4.56 L 40.75 4.56 Q 39.93 4.56 39.53 5.25 L 39.53 5.25 L 39.53 5.25 Q 39.13 5.94 39.13 7.06 L 39.13 7.06 L 39.13 10.5 L 37.25 10.5 L 37.25 1.55 L 39.03 1.55 L 39.03 4.27 L 39.03 4.27 Q 39.17 4.12 39.34 3.91 L 39.34 3.91 L 39.34 3.91 Q 39.51 3.71 39.77 3.54 L 39.77 3.54 L 39.77 3.54 Q 40.03 3.36 40.42 3.24 L 40.42 3.24 L 40.42 3.24 Q 40.82 3.12 41.43 3.12 Z M 47.82 10.5 L 45.93 10.5 L 45.93 3.29 L 47.82 3.29 L 47.82 10.5 Z M 47.92 1.02 L 47.92 1.02 L 47.92 1.02 Q 47.92 1.47 47.61 1.78 L 47.61 1.78 L 47.61 1.78 Q 47.31 2.09 46.87 2.09 L 46.87 2.09 L 46.87 2.09 Q 46.42 2.09 46.12 1.78 L 46.12 1.78 L 46.12 1.78 Q 45.81 1.47 45.81 1.02 L 45.81 1.02 L 45.81 1.02 Q 45.81 0.59 46.12 0.29 L 46.12 0.29 L 46.12 0.29 Q 46.42 -0.01 46.87 -0.01 L 46.87 -0.01 L 46.87 -0.01 Q 47.31 -0.01 47.61 0.29 L 47.61 0.29 L 47.61 0.29 Q 47.92 0.59 47.92 1.02 Z M 54.12 3.12 L 54.12 3.12 L 54.12 3.12 Q 54.77 3.12 55.23 3.34 L 55.23 3.34 L 55.23 3.34 Q 55.69 3.56 55.99 3.93 L 55.99 3.93 L 55.99 3.93 Q 56.29 4.31 56.43 4.83 L 56.43 4.83 L 56.43 4.83 Q 56.57 5.35 56.57 5.95 L 56.57 5.95 L 56.57 10.5 L 54.7 10.5 L 54.7 6.58 L 54.7 6.58 Q 54.7 5.54 54.42 5.05 L 54.42 5.05 L 54.42 5.05 Q 54.14 4.56 53.45 4.56 L 53.45 4.56 L 53.45 4.56 Q 52.63 4.56 52.23 5.25 L 52.23 5.25 L 52.23 5.25 Q 51.83 5.94 51.83 7.06 L 51.83 7.06 L 51.83 10.5 L 49.95 10.5 L 49.95 3.29 L 51.35 3.29 L 51.73 4.27 L 51.73 4.27 Q 51.87 4.12 52.04 3.91 L 52.04 3.91 L 52.04 3.91 Q 52.21 3.71 52.46 3.54 L 52.46 3.54 L 52.46 3.54 Q 52.72 3.36 53.12 3.24 L 53.12 3.24 L 53.12 3.24 Q 53.52 3.12 54.12 3.12 Z M 63.5 3.29 L 64.97 3.29 L 64.97 9.63 L 64.97 9.63 Q 64.97 10.32 64.76 10.93 L 64.76 10.93 L 64.76 10.93 Q 64.54 11.54 64.07 12.01 L 64.07 12.01 L 64.07 12.01 Q 63.6 12.47 62.87 12.76 L 62.87 12.76 L 62.87 12.76 Q 62.15 13.05 61.12 13.06 L 61.12 13.06 L 61.12 13.06 Q 60.58 13.06 60.13 12.98 L 60.13 12.98 L 60.13 12.98 Q 59.68 12.91 59.36 12.81 L 59.36 12.81 L 59.36 12.81 Q 58.98 12.7 58.67 12.54 L 58.67 12.54 L 58.81 11.05 L 58.81 11.05 Q 59.12 11.2 59.49 11.33 L 59.49 11.33 L 59.49 11.33 Q 59.81 11.44 60.22 11.52 L 60.22 11.52 L 60.22 11.52 Q 60.63 11.59 61.12 11.59 L 61.12 11.59 L 61.12 11.59 Q 61.71 11.59 62.08 11.43 L 62.08 11.43 L 62.08 11.43 Q 62.45 11.27 62.67 11.03 L 62.67 11.03 L 62.67 11.03 Q 62.89 10.78 62.99 10.5 L 62.99 10.5 L 62.99 10.5 Q 63.08 10.22 63.1 9.97 L 63.1 9.97 L 63.1 9.97 Q 63.13 9.73 63.11 9.56 L 63.11 9.56 L 63.11 9.56 Q 63.1 9.39 63.1 9.39 L 63.1 9.39 L 63.1 9.39 Q 63.1 9.39 62.99 9.56 L 62.99 9.56 L 62.99 9.56 Q 62.87 9.73 62.62 9.94 L 62.62 9.94 L 62.62 9.94 Q 62.37 10.15 61.96 10.32 L 61.96 10.32 L 61.96 10.32 Q 61.56 10.5 60.97 10.5 L 60.97 10.5 L 60.97 10.5 Q 60.34 10.5 59.78 10.31 L 59.78 10.31 L 59.78 10.31 Q 59.22 10.12 58.8 9.68 L 58.8 9.68 L 58.8 9.68 Q 58.38 9.24 58.13 8.53 L 58.13 8.53 L 58.13 8.53 Q 57.89 7.81 57.89 6.78 L 57.89 6.78 L 57.89 6.78 Q 57.89 5.74 58.2 5.04 L 58.2 5.04 L 58.2 5.04 Q 58.51 4.34 58.97 3.91 L 58.97 3.91 L 58.97 3.91 Q 59.43 3.49 59.97 3.3 L 59.97 3.3 L 59.97 3.3 Q 60.51 3.12 60.97 3.12 L 60.97 3.12 L 60.97 3.12 Q 61.52 3.12 61.92 3.28 L 61.92 3.28 L 61.92 3.28 Q 62.33 3.44 62.59 3.64 L 62.59 3.64 L 62.59 3.64 Q 62.85 3.84 62.98 4 L 62.98 4 L 62.98 4 Q 63.11 4.16 63.11 4.16 L 63.11 4.16 L 63.5 3.29 Z M 63.1 6.82 L 63.1 6.82 L 63.1 6.82 Q 63.1 5.68 62.65 5.13 L 62.65 5.13 L 62.65 5.13 Q 62.2 4.58 61.47 4.58 L 61.47 4.58 L 61.47 4.58 Q 60.75 4.58 60.3 5.13 L 60.3 5.13 L 60.3 5.13 Q 59.85 5.68 59.85 6.82 L 59.85 6.82 L 59.85 6.82 Q 59.85 7.95 60.3 8.5 L 60.3 8.5 L 60.3 8.5 Q 60.75 9.04 61.47 9.04 L 61.47 9.04 L 61.47 9.04 Q 62.2 9.04 62.65 8.5 L 62.65 8.5 L 62.65 8.5 Q 63.1 7.95 63.1 6.82 Z M 70.8 10.5 L 70.8 8.54 L 72.76 8.54 L 72.76 10.5 L 70.8 10.5 Z M 84.56 2.3 L 83.87 3.95 L 83.87 3.95 Q 83.34 3.54 82.77 3.32 L 82.77 3.32 L 82.77 3.32 Q 82.21 3.09 81.7 3.09 L 81.7 3.09 L 81.7 3.09 Q 81.16 3.09 80.89 3.24 L 80.89 3.24 L 80.89 3.24 Q 80.63 3.39 80.63 3.88 L 80.63 3.88 L 80.63 3.88 Q 80.63 4.13 80.73 4.31 L 80.73 4.31 L 80.73 4.31 Q 80.84 4.49 81.03 4.63 L 81.03 4.63 L 81.03 4.63 Q 81.23 4.77 81.5 4.88 L 81.5 4.88 L 81.5 4.88 Q 81.77 4.98 82.1 5.1 L 82.1 5.1 L 82.1 5.1 Q 82.57 5.25 83.06 5.45 L 83.06 5.45 L 83.06 5.45 Q 83.55 5.64 83.95 5.95 L 83.95 5.95 L 83.95 5.95 Q 84.35 6.26 84.6 6.73 L 84.6 6.73 L 84.6 6.73 Q 84.85 7.21 84.85 7.94 L 84.85 7.94 L 84.85 7.94 Q 84.85 8.65 84.58 9.16 L 84.58 9.16 L 84.58 9.16 Q 84.31 9.67 83.86 10 L 83.86 10 L 83.86 10 Q 83.41 10.33 82.84 10.49 L 82.84 10.49 L 82.84 10.49 Q 82.26 10.65 81.65 10.65 L 81.65 10.65 L 81.65 10.65 Q 80.75 10.65 79.88 10.3 L 79.88 10.3 L 79.88 10.3 Q 79 9.95 78.36 9.27 L 78.36 9.27 L 79.03 7.67 L 79.03 7.67 Q 79.6 8.27 80.32 8.61 L 80.32 8.61 L 80.32 8.61 Q 81.05 8.95 81.7 8.95 L 81.7 8.95 L 81.7 8.95 Q 82.29 8.95 82.61 8.78 L 82.61 8.78 L 82.61 8.78 Q 82.92 8.61 82.94 8.09 L 82.94 8.09 L 82.94 8.09 Q 82.94 7.8 82.82 7.59 L 82.82 7.59 L 82.82 7.59 Q 82.71 7.38 82.5 7.22 L 82.5 7.22 L 82.5 7.22 Q 82.29 7.07 82.01 6.96 L 82.01 6.96 L 82.01 6.96 Q 81.73 6.85 81.4 6.73 L 81.4 6.73 L 81.4 6.73 Q 80.92 6.58 80.44 6.39 L 80.44 6.39 L 80.44 6.39 Q 79.97 6.2 79.59 5.89 L 79.59 5.89 L 79.59 5.89 Q 79.21 5.59 78.98 5.13 L 78.98 5.13 L 78.98 5.13 Q 78.75 4.68 78.75 3.98 L 78.75 3.98 L 78.75 3.98 Q 78.75 3.28 79 2.78 L 79 2.78 L 79 2.78 Q 79.25 2.28 79.67 1.97 L 79.67 1.97 L 79.67 1.97 Q 80.09 1.65 80.64 1.5 L 80.64 1.5 L 80.64 1.5 Q 81.19 1.36 81.77 1.36 L 81.77 1.36 L 81.77 1.36 Q 82.53 1.36 83.25 1.61 L 83.25 1.61 L 83.25 1.61 Q 83.97 1.86 84.56 2.3 L 84.56 2.3 Z M 89.8 3.12 L 89.8 3.12 L 89.8 3.12 Q 90.36 3.12 91.01 3.29 L 91.01 3.29 L 91.01 3.29 Q 91.67 3.46 92.25 3.88 L 92.25 3.88 L 92.25 3.88 Q 92.82 4.3 93.2 5.03 L 93.2 5.03 L 93.2 5.03 Q 93.59 5.75 93.59 6.89 L 93.59 6.89 L 93.59 6.89 Q 93.59 8.02 93.2 8.75 L 93.2 8.75 L 93.2 8.75 Q 92.82 9.48 92.25 9.9 L 92.25 9.9 L 92.25 9.9 Q 91.67 10.32 91.01 10.49 L 91.01 10.49 L 91.01 10.49 Q 90.36 10.65 89.8 10.65 L 89.8 10.65 L 89.8 10.65 Q 89.24 10.65 88.58 10.49 L 88.58 10.49 L 88.58 10.49 Q 87.92 10.32 87.35 9.9 L 87.35 9.9 L 87.35 9.9 Q 86.79 9.48 86.41 8.75 L 86.41 8.75 L 86.41 8.75 Q 86.03 8.02 86.03 6.89 L 86.03 6.89 L 86.03 6.89 Q 86.03 5.75 86.41 5.03 L 86.41 5.03 L 86.41 5.03 Q 86.79 4.3 87.35 3.88 L 87.35 3.88 L 87.35 3.88 Q 87.92 3.46 88.58 3.29 L 88.58 3.29 L 88.58 3.29 Q 89.24 3.12 89.8 3.12 Z M 89.8 9.25 L 89.8 9.25 L 89.8 9.25 Q 90.58 9.25 91.1 8.64 L 91.1 8.64 L 91.1 8.64 Q 91.63 8.02 91.63 6.89 L 91.63 6.89 L 91.63 6.89 Q 91.63 5.75 91.1 5.14 L 91.1 5.14 L 91.1 5.14 Q 90.58 4.54 89.8 4.54 L 89.8 4.54 L 89.8 4.54 Q 89.04 4.54 88.52 5.14 L 88.52 5.14 L 88.52 5.14 Q 88 5.75 88 6.89 L 88 6.89 L 88 6.89 Q 88 7.45 88.14 7.89 L 88.14 7.89 L 88.14 7.89 Q 88.28 8.33 88.52 8.63 L 88.52 8.63 L 88.52 8.63 Q 88.76 8.93 89.09 9.09 L 89.09 9.09 L 89.09 9.09 Q 89.42 9.25 89.8 9.25 Z M 98.01 3.05 L 98.01 3.05 L 98.01 3.05 Q 97.73 3.05 97.59 3.14 L 97.59 3.14 L 97.59 3.14 Q 97.44 3.23 97.37 3.37 L 97.37 3.37 L 97.37 3.37 Q 97.3 3.5 97.29 3.67 L 97.29 3.67 L 97.29 3.67 Q 97.27 3.84 97.27 3.99 L 97.27 3.99 L 98.53 3.99 L 98.32 5.36 L 97.27 5.36 L 97.27 10.5 L 95.38 10.5 L 95.38 5.36 L 94.37 5.36 L 94.37 3.99 L 95.38 3.99 L 95.38 3.64 L 95.38 3.64 Q 95.38 2.91 95.65 2.48 L 95.65 2.48 L 95.65 2.48 Q 95.93 2.04 96.34 1.82 L 96.34 1.82 L 96.34 1.82 Q 96.75 1.6 97.23 1.53 L 97.23 1.53 L 97.23 1.53 Q 97.71 1.46 98.11 1.47 L 98.11 1.47 L 98.11 1.47 Q 98.52 1.48 98.79 1.53 L 98.79 1.53 L 98.79 1.53 Q 99.06 1.58 99.06 1.58 L 99.06 1.58 L 98.87 3.14 L 98.87 3.14 Q 98.76 3.12 98.62 3.09 L 98.62 3.09 L 98.62 3.09 Q 98.5 3.08 98.34 3.07 L 98.34 3.07 L 98.34 3.07 Q 98.18 3.05 98.01 3.05 Z M 103.12 9.2 L 103.12 9.2 L 103.12 9.2 Q 103.53 9.2 103.88 9.13 L 103.88 9.13 L 103.88 9.13 Q 104.05 9.09 104.22 9.04 L 104.22 9.04 L 104.23 10.5 L 104.23 10.5 Q 103.98 10.54 103.7 10.58 L 103.7 10.58 L 103.7 10.58 Q 103.46 10.61 103.14 10.63 L 103.14 10.63 L 103.14 10.63 Q 102.82 10.65 102.45 10.65 L 102.45 10.65 L 102.45 10.65 Q 101.92 10.6 101.51 10.33 L 101.51 10.33 L 101.51 10.33 Q 101.16 10.09 100.88 9.63 L 100.88 9.63 L 100.88 9.63 Q 100.59 9.16 100.59 8.3 L 100.59 8.3 L 100.59 5.36 L 99.22 5.36 L 99.22 3.99 L 100.59 3.99 L 100.59 1.97 L 102.45 1.55 L 102.45 3.99 L 104.15 3.99 L 104.15 5.36 L 102.48 5.36 L 102.48 8.2 L 102.48 8.2 Q 102.48 8.39 102.53 8.56 L 102.53 8.56 L 102.53 8.56 Q 102.58 8.74 102.67 8.88 L 102.67 8.88 L 102.67 8.88 Q 102.76 9.02 102.88 9.11 L 102.88 9.11 L 102.88 9.11 Q 103 9.2 103.12 9.2 Z M 115.16 3.36 L 117 3.36 L 114.8 10.5 L 112.57 10.5 L 111.01 4.98 L 109.45 10.5 L 107.32 10.5 L 104.86 3.36 L 106.69 3.36 L 108.47 8.54 L 109.94 3.29 L 112.06 3.29 L 113.71 8.54 L 113.71 8.54 Q 113.71 8.54 113.81 8.15 L 113.81 8.15 L 113.81 8.15 Q 113.92 7.77 114.08 7.2 L 114.08 7.2 L 114.08 7.2 Q 114.24 6.62 114.43 5.95 L 114.43 5.95 L 114.43 5.95 Q 114.62 5.28 114.78 4.7 L 114.78 4.7 L 114.78 4.7 Q 114.94 4.13 115.05 3.75 L 115.05 3.75 L 115.05 3.75 Q 115.16 3.36 115.16 3.36 L 115.16 3.36 Z M 120.95 3.12 L 120.95 3.12 L 120.95 3.12 Q 121.41 3.12 121.94 3.27 L 121.94 3.27 L 121.94 3.27 Q 122.47 3.42 122.93 3.75 L 122.93 3.75 L 122.93 3.75 Q 123.4 4.07 123.69 4.59 L 123.69 4.59 L 123.69 4.59 Q 123.98 5.11 123.97 5.85 L 123.97 5.85 L 123.97 10.5 L 122.6 10.5 L 122.6 10.5 Q 122.6 10.5 122.56 10.33 L 122.56 10.33 L 122.56 10.33 Q 122.51 10.16 122.46 9.95 L 122.46 9.95 L 122.46 9.95 Q 122.42 9.74 122.37 9.58 L 122.37 9.58 L 122.37 9.58 Q 122.33 9.42 122.33 9.44 L 122.33 9.44 L 122.33 9.44 Q 122.14 9.79 121.81 10.05 L 121.81 10.05 L 121.81 10.05 Q 121.53 10.29 121.09 10.47 L 121.09 10.47 L 121.09 10.47 Q 120.65 10.65 120.01 10.65 L 120.01 10.65 L 120.01 10.65 Q 119.56 10.65 119.13 10.52 L 119.13 10.52 L 119.13 10.52 Q 118.69 10.39 118.35 10.13 L 118.35 10.13 L 118.35 10.13 Q 118.01 9.87 117.79 9.48 L 117.79 9.48 L 117.79 9.48 Q 117.57 9.09 117.56 8.57 L 117.56 8.57 L 117.56 8.57 Q 117.53 8.02 117.7 7.59 L 117.7 7.59 L 117.7 7.59 Q 117.88 7.17 118.21 6.86 L 118.21 6.86 L 118.21 6.86 Q 118.54 6.55 119 6.36 L 119 6.36 L 119 6.36 Q 119.46 6.17 120.01 6.1 L 120.01 6.1 L 120.01 6.1 Q 120.53 6.03 121.14 6.03 L 121.14 6.03 L 121.14 6.03 Q 121.76 6.03 122.25 6.06 L 122.25 6.06 L 122.25 5.84 L 122.25 5.84 Q 122.25 5.24 121.98 4.93 L 121.98 4.93 L 121.98 4.93 Q 121.72 4.63 121.32 4.54 L 121.32 4.54 L 121.32 4.54 Q 120.92 4.45 120.44 4.52 L 120.44 4.52 L 120.44 4.52 Q 119.97 4.59 119.53 4.72 L 119.53 4.72 L 119.53 4.72 Q 119.1 4.86 118.77 5 L 118.77 5 L 118.77 5 Q 118.44 5.15 118.36 5.22 L 118.36 5.22 L 118.36 3.81 L 118.36 3.81 Q 118.37 3.79 118.61 3.69 L 118.61 3.69 L 118.61 3.69 Q 118.85 3.58 119.21 3.46 L 119.21 3.46 L 119.21 3.46 Q 119.57 3.33 120.03 3.23 L 120.03 3.23 L 120.03 3.23 Q 120.48 3.12 120.95 3.12 Z M 121.84 8.68 L 121.84 8.68 L 121.84 8.68 Q 122.08 8.37 122.16 7.99 L 122.16 7.99 L 122.16 7.99 Q 122.23 7.62 122.23 7.2 L 122.23 7.2 L 121.42 7.2 L 121.42 7.2 Q 121.1 7.2 120.74 7.24 L 120.74 7.24 L 120.74 7.24 Q 120.37 7.28 120.06 7.41 L 120.06 7.41 L 120.06 7.41 Q 119.76 7.53 119.55 7.78 L 119.55 7.78 L 119.55 7.78 Q 119.34 8.02 119.34 8.44 L 119.34 8.44 L 119.34 8.44 Q 119.34 8.9 119.68 9.11 L 119.68 9.11 L 119.68 9.11 Q 120.02 9.32 120.53 9.32 L 120.53 9.32 L 120.53 9.32 Q 120.96 9.32 121.29 9.15 L 121.29 9.15 L 121.29 9.15 Q 121.62 8.97 121.84 8.68 Z M 130.16 3.18 L 130.16 5.1 L 130.16 5.1 Q 129.84 5.03 129.58 5.02 L 129.58 5.02 L 129.58 5.02 Q 129.32 5.01 129.09 5.03 L 129.09 5.03 L 129.09 5.03 Q 128.65 5.05 128.36 5.22 L 128.36 5.22 L 128.36 5.22 Q 128.07 5.39 127.92 5.66 L 127.92 5.66 L 127.92 5.66 Q 127.76 5.94 127.71 6.28 L 127.71 6.28 L 127.71 6.28 Q 127.65 6.62 127.65 6.99 L 127.65 6.99 L 127.65 10.5 L 125.76 10.5 L 125.76 3.36 L 127.15 3.36 L 127.44 4.93 L 127.44 4.93 Q 127.44 4.93 127.48 4.77 L 127.48 4.77 L 127.48 4.77 Q 127.51 4.61 127.62 4.38 L 127.62 4.38 L 127.62 4.38 Q 127.72 4.14 127.92 3.88 L 127.92 3.88 L 127.92 3.88 Q 128.11 3.63 128.41 3.43 L 128.41 3.43 L 128.41 3.43 Q 128.72 3.23 129.14 3.15 L 129.14 3.15 L 129.14 3.15 Q 129.57 3.07 130.16 3.18 L 130.16 3.18 Z M 134.81 10.65 L 134.81 10.65 L 134.81 10.65 Q 133.64 10.65 132.89 10.35 L 132.89 10.35 L 132.89 10.35 Q 132.13 10.04 131.68 9.52 L 131.68 9.52 L 131.68 9.52 Q 131.22 9 131.04 8.32 L 131.04 8.32 L 131.04 8.32 Q 130.86 7.64 130.86 6.89 L 130.86 6.89 L 130.86 6.89 Q 130.86 6.22 131.04 5.54 L 131.04 5.54 L 131.04 5.54 Q 131.22 4.87 131.62 4.33 L 131.62 4.33 L 131.62 4.33 Q 132.02 3.79 132.66 3.46 L 132.66 3.46 L 132.66 3.46 Q 133.31 3.12 134.23 3.12 L 134.23 3.12 L 134.23 3.12 Q 135.21 3.12 135.86 3.46 L 135.86 3.46 L 135.86 3.46 Q 136.51 3.79 136.91 4.33 L 136.91 4.33 L 136.91 4.33 Q 137.3 4.87 137.46 5.54 L 137.46 5.54 L 137.46 5.54 Q 137.62 6.22 137.62 6.89 L 137.62 6.89 L 137.62 7.52 L 132.66 7.52 L 132.66 7.52 Q 132.66 8.27 133.2 8.76 L 133.2 8.76 L 133.2 8.76 Q 133.74 9.25 134.68 9.25 L 134.68 9.25 L 134.68 9.25 Q 135.21 9.25 135.66 9.14 L 135.66 9.14 L 135.66 9.14 Q 136.11 9.03 136.43 8.89 L 136.43 8.89 L 136.43 8.89 Q 136.79 8.74 137.1 8.53 L 137.1 8.53 L 137.1 10.09 L 137.1 10.09 Q 137.1 10.11 136.92 10.19 L 136.92 10.19 L 136.92 10.19 Q 136.74 10.28 136.43 10.38 L 136.43 10.38 L 136.43 10.38 Q 136.12 10.49 135.7 10.57 L 135.7 10.57 L 135.7 10.57 Q 135.28 10.65 134.81 10.65 Z M 132.66 6.19 L 135.84 6.19 L 135.84 6.19 Q 135.84 5.95 135.78 5.66 L 135.78 5.66 L 135.78 5.66 Q 135.72 5.38 135.54 5.12 L 135.54 5.12 L 135.54 5.12 Q 135.37 4.87 135.05 4.7 L 135.05 4.7 L 135.05 4.7 Q 134.74 4.54 134.23 4.54 L 134.23 4.54 L 134.23 4.54 Q 133.8 4.54 133.5 4.7 L 133.5 4.7 L 133.5 4.7 Q 133.2 4.87 133.01 5.12 L 133.01 5.12 L 133.01 5.12 Q 132.83 5.38 132.75 5.66 L 132.75 5.66 L 132.75 5.66 Q 132.66 5.95 132.66 6.19 L 132.66 6.19 Z" stroke-linecap="round" />
</g>
		<g transform="matrix(0.14 0 0 0.14 7.29 27.1)"  >
<linearGradient id="SVGID_312" gradientUnits="userSpaceOnUse" gradientTransform="matrix(1 0 0 1 -40 -40)"  x1="0" y1="40" x2="80" y2="40">
<stop offset="0%" style="stop-color:rgb(90,90,45);stop-opacity: 1"/>
<stop offset="100%" style="stop-color:rgb(13,227,13);stop-opacity: 1"/>
</linearGradient>
<circle style="stroke: rgb(0,0,0); stroke-width: 0; stroke-dasharray: none; stroke-linecap: butt; stroke-dashoffset: 0; stroke-linejoin: miter; stroke-miterlimit: 4; fill: url(#SVGID_312); fill-rule: nonzero; opacity: 1;"  cx="0" cy="0" r="40" />
</g>
</g>
</g>
</svg>